<svg version="1.2" xmlns="http://www.w3.org/2000/svg" viewBox="0 0 321 275" width="321" height="275"><style>.a{fill:#100f0d}.b{fill:#141210}</style><path fill-rule="evenodd" class="a" d="m35.2 88.1c0 6.1-4.9 12.2-13.4 12.2h-15.9v-40.2h11.6c7.4 0 12.3 5 12.3 10.3 0 4.4-3.2 7.3-4.7 7.3 4.7 0 10.1 4.1 10.1 10.4zm-22.6-21.8v10h5.2c3.3 0 5.8-2.2 5.8-5 0-2.9-2.7-5-5.7-5zm16.2 21.3c0-3-2.8-5.8-7.6-5.8h-8.6v12.3h8.7c3.8 0 7.5-2.6 7.5-6.5z"/><path class="a" d="m69.7 66.3v-6.2h-25.4v40.2h25.4v-6.3h-18.7v-11.1h16.2v-6.3h-16.2v-10.3z"/><path class="a" d="m87.1 94v-33.9h-6.6v40.2h25.7v-6.3z"/><path class="a" d="m122 60.1v40.2h-6.7v-40.2z"/><path class="a" d="m159.4 66.3v-6.2h-25.4v40.2h25.4v-6.3h-18.7v-11.1h16.1v-6.3h-16.1v-10.3z"/><path class="a" d="m199.2 60.1l-12.8 27.2-12.7-27.2h-7.1l19.6 41h0.5l19.6-41z"/><path class="a" d="m240.2 66.3v-6.2h-25.4v40.2h25.4v-6.3h-18.7v-11.1h16.2v-6.3h-16.2v-10.3z"/><path fill-rule="evenodd" class="a" d="m17.7 140.3h-9.7l-1.6 3.8q-0.7 1.5-0.7 2.2 0 0.5 0.6 0.9 0.5 0.5 2.3 0.6v0.7h-7.8v-0.7q1.5-0.3 2-0.7 0.9-0.9 2.1-3.5l8.7-20.2h0.7l8.7 20.4q1 2.4 1.8 3.2 0.9 0.7 2.4 0.8v0.7h-9.8v-0.7q1.5-0.1 2-0.5 0.5-0.4 0.5-1 0-0.8-0.7-2.5zm-0.5-1.3l-4.2-9.9-4.4 9.9z"/><path class="a" d="m72.1 123.4l0.6 8.4h-0.6q-1.1-3.8-3.2-5.4-2.1-1.7-5.1-1.7-2.5 0-4.5 1.3-2 1.2-3.1 3.9-1.2 2.7-1.2 6.7 0 3.4 1.1 5.8 1.1 2.4 3.3 3.7 2.1 1.3 4.9 1.3 2.4 0 4.3-1 1.9-1 4.1-4l0.6 0.3q-1.9 3.3-4.4 4.8-2.5 1.5-5.9 1.5-6.2 0-9.6-4.5-2.6-3.3-2.6-7.9 0-3.7 1.7-6.7 1.7-3.1 4.6-4.8 2.9-1.7 6.4-1.7 2.7 0 5.3 1.3 0.8 0.4 1.1 0.4 0.5 0 0.9-0.3 0.5-0.5 0.7-1.4z"/><path fill-rule="evenodd" class="a" d="m113.6 140.3h-9.7l-1.6 3.8q-0.7 1.5-0.7 2.2 0 0.5 0.6 0.9 0.5 0.5 2.3 0.6v0.7h-7.8v-0.7q1.5-0.3 2-0.7 0.9-0.9 2.1-3.5l8.7-20.2h0.7l8.7 20.4q1 2.4 1.8 3.2 0.9 0.7 2.4 0.8v0.7h-9.8v-0.7q1.5-0.1 2-0.5 0.5-0.4 0.5-1 0-0.8-0.7-2.5zm-0.5-1.3l-4.2-9.9-4.4 9.9z"/><path fill-rule="evenodd" class="a" d="m146 148.5v-0.7h0.9q1.6 0 2.3-1 0.4-0.6 0.4-2.7v-15.8q0-2.3-0.5-2.8-0.7-0.8-2.2-0.8h-0.9v-0.7h10.2q5.5 0 8.5 1.3 2.9 1.2 4.6 4.1 1.8 2.9 1.8 6.7 0 5.1-3.2 8.5-3.5 3.9-10.7 3.9zm7.1-1.8q2.3 0.5 3.9 0.5 4.2 0 7-2.9 2.9-3 2.9-8 0-5.1-2.9-8-2.8-2.9-7.2-2.9-1.6 0-3.7 0.5z"/><path class="a" d="m202.2 125.3v9.7h5.5q2.1 0 2.8-0.6 1-0.9 1.1-3h0.7v8.6h-0.7q-0.2-1.8-0.5-2.3-0.3-0.7-1.1-1-0.7-0.4-2.3-0.4h-5.5v8.1q0 1.6 0.2 2 0.1 0.3 0.5 0.5 0.3 0.2 1.4 0.2h4.2q2.1 0 3.1-0.3 0.9-0.2 1.8-1.1 1.1-1.1 2.3-3.4h0.8l-2.2 6.2h-19.2v-0.7h0.9q0.9 0 1.7-0.4 0.6-0.3 0.8-0.9 0.2-0.6 0.2-2.4v-15.8q0-2.4-0.5-2.9-0.6-0.7-2.2-0.7h-0.9v-0.7h19.2l0.3 5.4h-0.7q-0.4-2-0.9-2.7-0.4-0.7-1.4-1.1-0.7-0.3-2.5-0.3z"/><path class="a" d="m254.6 148.5l-9.7-20.6v16.3q0 2.3 0.5 2.8 0.7 0.8 2.2 0.8h0.9v0.7h-8.7v-0.7h0.9q1.6 0 2.2-1 0.4-0.5 0.4-2.6v-16q0-1.6-0.4-2.3-0.2-0.5-0.9-0.9-0.7-0.3-2.2-0.3v-0.7h7l9.1 19.1 8.9-19.1h7v0.7h-0.8q-1.6 0-2.3 0.9-0.4 0.6-0.4 2.6v16q0 2.3 0.5 2.8 0.7 0.8 2.2 0.8h0.8v0.7h-10.6v-0.7h0.9q1.6 0 2.3-1 0.4-0.5 0.4-2.6v-16.3l-9.6 20.6z"/><path class="a" d="m312.4 124h8.7v0.7h-0.5q-0.5 0-1.4 0.4-0.9 0.4-1.7 1.2-0.7 0.8-1.8 2.5l-6 9.3v6.1q0 2.3 0.5 2.8 0.7 0.8 2.2 0.8h0.8v0.7h-10.6v-0.7h0.9q1.6 0 2.2-1 0.4-0.5 0.4-2.6v-5.8l-6.8-10.2q-1.2-1.8-1.7-2.3-0.4-0.4-1.7-1.1-0.4-0.1-1.1-0.1v-0.7h10.6v0.7h-0.5q-0.9 0-1.6 0.4-0.7 0.4-0.7 1.2 0 0.6 1.1 2.3l5.2 7.9 4.9-7.6q1.1-1.6 1.1-2.5 0-0.5-0.3-0.9-0.2-0.4-0.7-0.6-0.5-0.2-1.5-0.2z"/><path fill-rule="evenodd" class="b" d="m163.1 239.5c15.3-12.7 30.7-20.6 46.5-19.2l-7.8-36.3c-15.2-0.2-28 6.3-39.1 17.8z"/><path fill-rule="evenodd" class="b" d="m163.8 242.3c11.5-10.9 24.3-17.3 39.4-16.1l0.3 9.5c-10.5-4.2-24.9 0.9-39.7 6.6z"/><path fill-rule="evenodd" class="b" d="m159.4 201.8c-11.1-11.5-23.9-18-39.1-17.8l-7.8 36.3c15.8-1.4 31.2 6.5 46.5 19.2z"/><path fill-rule="evenodd" class="b" d="m158.3 242.3c-11.5-10.9-24.3-17.3-39.4-16.1l-0.3 9.5c10.5-4.2 24.9 0.9 39.7 6.6z"/><path class="b" d="m159.3 268.8c-64 0-117.5-46.1-129-106.8l-6.6-4.2c1.7 11.3 4.8 22.4 9.3 33 6.9 16.3 16.8 31 29.4 43.6 12.6 12.6 27.2 22.4 43.5 29.3 16.9 7.2 34.9 10.8 53.4 10.8 12.8 0 25.4-1.7 37.5-5.2l-6.6-4.2c-9.9 2.4-20.3 3.7-30.9 3.7zm126.3-184.7c-6.9-16.3-16.8-31-29.4-43.5-12.6-12.6-27.2-22.5-43.6-29.4-16.9-7.2-34.8-10.8-53.3-10.8-12 0-23.7 1.5-35 4.5l6.7 4.3c9.1-2 18.6-3 28.3-3 63.1 0 115.9 44.7 128.5 104.1l6.7 4.3c-1.8-10.4-4.8-20.6-8.9-30.5z"/></svg>