<svg version="1.2" xmlns="http://www.w3.org/2000/svg" viewBox="0 0 842 561" width="842" height="561"><defs><clipPath clipPathUnits="userSpaceOnUse" id="cp1"><path d="m842 0.01v561.26h-841.89v-561.26z"/></clipPath></defs><style>.a{fill:#e8e2cc}.b{fill:#fff}.c{fill:#100f0d}.d{fill:#141210}</style><g clip-path="url(#cp1)"><path class="a" d="m842 0v561.3h-841.9v-561.3z"/></g><path class="b" d="m225 212.6c0-108.4 87.6-196 196.1-196 108.4 0 196 87.6 196 196 0 108.4-87.6 196.1-196 196.1-108.5 0-196.1-87.7-196.1-196.1z"/><path fill-rule="evenodd" class="c" d="m295.2 185.1c0 6.1-4.9 12.2-13.4 12.2h-15.9v-40.2h11.6c7.4 0 12.3 5 12.3 10.3 0 4.4-3.2 7.3-4.7 7.3 4.7 0 10.1 4.1 10.1 10.4zm-22.6-21.8v10h5.2c3.3 0 5.8-2.2 5.8-5 0-2.9-2.7-5-5.7-5zm16.2 21.3c0-3-2.8-5.8-7.6-5.8h-8.6v12.3h8.7c3.8 0 7.5-2.6 7.5-6.5z"/><path class="c" d="m329.7 163.3v-6.2h-25.4v40.2h25.4v-6.3h-18.7v-11.1h16.2v-6.3h-16.2v-10.3z"/><path class="c" d="m347.1 191v-33.9h-6.6v40.2h25.7v-6.3z"/><path class="c" d="m382 157.1v40.2h-6.7v-40.2z"/><path class="c" d="m419.4 163.3v-6.2h-25.4v40.2h25.4v-6.3h-18.7v-11.1h16.1v-6.3h-16.1v-10.3z"/><path class="c" d="m459.2 157.1l-12.8 27.2-12.7-27.2h-7.1l19.6 41h0.5l19.6-41z"/><path class="c" d="m500.2 163.3v-6.2h-25.4v40.2h25.4v-6.3h-18.7v-11.1h16.2v-6.3h-16.2v-10.3z"/><path fill-rule="evenodd" class="c" d="m277.7 237.3h-9.7l-1.6 3.8q-0.7 1.5-0.7 2.2 0 0.5 0.6 0.9 0.5 0.5 2.3 0.6v0.7h-7.8v-0.7q1.5-0.3 2-0.7 0.9-0.9 2.1-3.5l8.7-20.2h0.7l8.7 20.4q1 2.4 1.8 3.2 0.9 0.7 2.4 0.8v0.7h-9.8v-0.7q1.5-0.1 2-0.5 0.5-0.4 0.5-1 0-0.8-0.7-2.5zm-0.5-1.3l-4.2-9.9-4.4 9.9z"/><path class="c" d="m332.1 220.4l0.6 8.4h-0.6q-1.1-3.8-3.2-5.4-2.1-1.7-5.1-1.7-2.5 0-4.5 1.3-2 1.2-3.1 3.9-1.2 2.7-1.2 6.7 0 3.4 1.1 5.8 1.1 2.4 3.3 3.7 2.1 1.3 4.9 1.3 2.4 0 4.3-1 1.9-1 4.1-4l0.6 0.3q-1.9 3.3-4.4 4.8-2.5 1.5-5.9 1.5-6.2 0-9.6-4.5-2.6-3.3-2.6-7.9 0-3.7 1.7-6.7 1.7-3.1 4.6-4.8 2.9-1.7 6.4-1.7 2.7 0 5.3 1.3 0.8 0.4 1.1 0.4 0.5 0 0.9-0.3 0.5-0.5 0.7-1.4z"/><path fill-rule="evenodd" class="c" d="m373.6 237.3h-9.7l-1.6 3.8q-0.7 1.5-0.7 2.2 0 0.5 0.6 0.9 0.5 0.5 2.3 0.6v0.7h-7.8v-0.7q1.5-0.3 2-0.7 0.9-0.9 2.1-3.5l8.7-20.2h0.7l8.7 20.4q1 2.4 1.8 3.2 0.9 0.7 2.4 0.8v0.7h-9.8v-0.7q1.5-0.1 2-0.5 0.5-0.4 0.5-1 0-0.8-0.7-2.5zm-0.5-1.3l-4.2-9.9-4.4 9.9z"/><path fill-rule="evenodd" class="c" d="m406 245.5v-0.7h0.9q1.6 0 2.3-1 0.4-0.6 0.4-2.7v-15.8q0-2.3-0.5-2.8-0.7-0.8-2.2-0.8h-0.9v-0.7h10.2q5.5 0 8.5 1.3 2.9 1.2 4.6 4.1 1.8 2.9 1.8 6.7 0 5.1-3.2 8.5-3.5 3.9-10.7 3.9zm7.1-1.8q2.3 0.5 3.9 0.5 4.2 0 7-2.9 2.9-3 2.9-8 0-5.1-2.9-8-2.8-2.9-7.2-2.9-1.6 0-3.7 0.5z"/><path class="c" d="m462.2 222.3v9.7h5.5q2.1 0 2.8-0.6 1-0.9 1.1-3h0.7v8.6h-0.7q-0.2-1.8-0.5-2.3-0.3-0.7-1.1-1-0.7-0.4-2.3-0.4h-5.5v8.1q0 1.6 0.2 2 0.1 0.3 0.5 0.5 0.3 0.2 1.4 0.2h4.2q2.1 0 3.1-0.3 0.9-0.2 1.8-1.1 1.1-1.1 2.3-3.4h0.8l-2.2 6.2h-19.2v-0.7h0.9q0.9 0 1.7-0.4 0.6-0.3 0.8-0.9 0.2-0.6 0.2-2.4v-15.8q0-2.4-0.5-2.9-0.6-0.7-2.2-0.7h-0.9v-0.7h19.2l0.3 5.4h-0.7q-0.4-2-0.9-2.7-0.4-0.7-1.4-1.1-0.7-0.3-2.5-0.3z"/><path class="c" d="m514.6 245.5l-9.7-20.6v16.3q0 2.3 0.5 2.8 0.7 0.8 2.2 0.8h0.9v0.7h-8.7v-0.7h0.9q1.6 0 2.2-1 0.4-0.5 0.4-2.6v-16q0-1.6-0.4-2.3-0.2-0.5-0.9-0.9-0.7-0.3-2.2-0.3v-0.7h7l9.1 19.1 8.9-19.1h7v0.7h-0.8q-1.6 0-2.3 0.9-0.4 0.6-0.4 2.6v16q0 2.3 0.5 2.8 0.7 0.8 2.2 0.8h0.8v0.7h-10.6v-0.7h0.9q1.6 0 2.3-1 0.4-0.5 0.4-2.6v-16.3l-9.6 20.6z"/><path class="c" d="m572.4 221h8.7v0.7h-0.5q-0.5 0-1.4 0.4-0.9 0.4-1.7 1.2-0.7 0.8-1.8 2.5l-6 9.3v6.1q0 2.3 0.5 2.8 0.7 0.8 2.2 0.8h0.8v0.7h-10.6v-0.7h0.9q1.6 0 2.2-1 0.4-0.5 0.4-2.6v-5.8l-6.8-10.2q-1.2-1.8-1.7-2.3-0.4-0.4-1.7-1.1-0.4-0.1-1.1-0.1v-0.7h10.6v0.7h-0.5q-0.9 0-1.6 0.4-0.7 0.4-0.7 1.2 0 0.6 1.1 2.3l5.2 7.9 4.9-7.6q1.1-1.6 1.1-2.5 0-0.5-0.3-0.9-0.2-0.4-0.7-0.6-0.5-0.2-1.5-0.2z"/><path fill-rule="evenodd" class="d" d="m423.1 336.5c15.3-12.7 30.7-20.6 46.5-19.2l-7.8-36.3c-15.2-0.2-28 6.3-39.1 17.8z"/><path fill-rule="evenodd" class="d" d="m423.8 339.3c11.5-10.9 24.3-17.3 39.4-16.1l0.3 9.5c-10.5-4.2-24.9 0.9-39.7 6.6z"/><path fill-rule="evenodd" class="d" d="m419.4 298.8c-11.1-11.5-23.9-18-39.1-17.8l-7.8 36.3c15.8-1.4 31.2 6.5 46.5 19.2z"/><path fill-rule="evenodd" class="d" d="m418.3 339.3c-11.5-10.9-24.3-17.3-39.4-16.1l-0.3 9.5c10.5-4.2 24.9 0.9 39.7 6.6z"/><path class="d" d="m419.3 365.8c-64 0-117.5-46.1-129-106.8l-6.6-4.2c1.7 11.3 4.8 22.4 9.3 33 6.9 16.3 16.8 31 29.4 43.6 12.6 12.6 27.2 22.4 43.5 29.3 16.9 7.2 34.9 10.8 53.4 10.8 12.8 0 25.4-1.7 37.5-5.2l-6.6-4.2c-9.9 2.4-20.3 3.7-30.9 3.7zm126.3-184.7c-6.9-16.3-16.8-31-29.4-43.5-12.6-12.6-27.2-22.5-43.6-29.4-16.9-7.2-34.8-10.8-53.3-10.8-12 0-23.7 1.5-35 4.5l6.7 4.3c9.1-2 18.6-3 28.3-3 63.1 0 115.9 44.7 128.5 104.1l6.7 4.3c-1.8-10.4-4.8-20.6-8.9-30.5z"/><path class="c" d="m284.2 439l0.4 0.1-1.6 5.2h-15.1v-0.5h0.7q1.3 0 1.8-0.8 0.3-0.5 0.3-2.1v-12.4q0-1.8-0.4-2.2-0.6-0.6-1.7-0.6h-0.7v-0.6h8.8v0.6q-1.5 0-2.2 0.3-0.6 0.3-0.8 0.7-0.2 0.4-0.2 2.2v12q0 1.1 0.2 1.6 0.1 0.3 0.5 0.4 0.4 0.2 2.3 0.2h1.4q2.2 0 3.1-0.3 0.9-0.4 1.7-1.2 0.7-0.8 1.5-2.6z"/><path fill-rule="evenodd" class="c" d="m296.7 436.2q0 2.9 1.4 4.5 1.4 1.7 3.4 1.7 1.3 0 2.2-0.7 1-0.7 1.6-2.4l0.5 0.3q-0.3 1.9-1.8 3.5-1.4 1.6-3.6 1.6-2.4 0-4.1-1.8-1.7-1.9-1.7-4.9 0-3.3 1.8-5.2 1.7-1.8 4.3-1.8 2.2 0 3.6 1.4 1.5 1.4 1.5 3.8zm0-0.8h6.1q-0.1-1.2-0.4-1.7-0.3-0.8-1-1.3-0.7-0.4-1.5-0.4-1.2 0-2.1 0.9-1 0.9-1.1 2.5z"/><path fill-rule="evenodd" class="c" d="m323.2 442.4q-2 1.6-2.5 1.8-0.8 0.3-1.7 0.3-1.3 0-2.2-0.9-0.9-0.9-0.9-2.4 0-0.9 0.4-1.6 0.6-1 2.1-1.8 1.4-0.9 4.8-2.1v-0.5q0-1.9-0.6-2.7-0.6-0.7-1.8-0.7-0.9 0-1.5 0.5-0.5 0.5-0.5 1.1v0.8q0 0.7-0.3 1-0.3 0.4-0.9 0.4-0.5 0-0.9-0.4-0.3-0.3-0.3-1 0-1.2 1.3-2.2 1.2-1 3.5-1 1.8 0 2.9 0.5 0.8 0.5 1.2 1.4 0.3 0.6 0.3 2.5v4.4q0 1.8 0.1 2.3 0 0.4 0.2 0.5 0.2 0.2 0.4 0.2 0.2 0 0.4-0.1 0.3-0.2 1.2-1.1v0.8q-1.7 2.1-3.1 2.1-0.7 0-1.1-0.4-0.5-0.5-0.5-1.7zm0-0.9v-4.9q-2.2 0.8-2.8 1.2-1.1 0.6-1.6 1.3-0.5 0.7-0.5 1.5 0 1 0.6 1.7 0.6 0.6 1.4 0.6 1.1 0 2.9-1.4z"/><path class="c" d="m340.9 431v2.9q1.7-2.9 3.4-2.9 0.8 0 1.3 0.5 0.5 0.4 0.5 1 0 0.6-0.3 1-0.4 0.3-0.9 0.3-0.5 0-1.1-0.4-0.7-0.5-1-0.5-0.2 0-0.5 0.3-0.7 0.5-1.4 1.9v6.2q0 1 0.3 1.6 0.2 0.4 0.7 0.6 0.4 0.3 1.3 0.3v0.5h-6.7v-0.5q1 0 1.5-0.3 0.3-0.3 0.5-0.7 0.1-0.3 0.1-1.4v-5q0-2.3-0.1-2.7-0.1-0.4-0.4-0.7-0.2-0.2-0.6-0.2-0.4 0-1 0.3l-0.2-0.6 4-1.5z"/><path class="c" d="m359 433.7q2.3-2.7 4.4-2.7 1.1 0 1.8 0.5 0.8 0.5 1.3 1.8 0.3 0.8 0.3 2.5v5.6q0 1.2 0.2 1.6 0.1 0.4 0.5 0.6 0.3 0.2 1.3 0.2v0.5h-6.5v-0.5h0.3q0.9 0 1.2-0.3 0.4-0.3 0.6-0.8 0-0.2 0-1.3v-5.3q0-1.8-0.5-2.6-0.4-0.8-1.5-0.8-1.7 0-3.4 1.8v6.9q0 1.3 0.1 1.6 0.2 0.4 0.6 0.6 0.3 0.2 1.4 0.2v0.5h-6.5v-0.5h0.3q1 0 1.3-0.5 0.4-0.5 0.4-1.9v-4.8q0-2.4-0.1-2.9-0.1-0.5-0.4-0.7-0.2-0.2-0.5-0.2-0.4 0-1 0.3l-0.2-0.6 4-1.5h0.6z"/><path class="c" d="m381.4 424.2q0.6 0 1.1 0.4 0.4 0.4 0.4 1 0 0.6-0.4 1.1-0.5 0.4-1.1 0.4-0.6 0-1-0.4-0.4-0.5-0.4-1.1 0-0.6 0.4-1 0.4-0.4 1-0.4zm1.2 6.8v10.4q0 1.2 0.2 1.6 0.2 0.4 0.5 0.6 0.4 0.2 1.3 0.2v0.5h-6.4v-0.5q1 0 1.3-0.2 0.4-0.2 0.5-0.6 0.2-0.4 0.3-1.6v-5q0-2.1-0.2-2.7-0.1-0.5-0.3-0.7-0.2-0.2-0.6-0.2-0.4 0-1 0.3l-0.2-0.6 4-1.5z"/><path class="c" d="m398.4 433.7q2.3-2.7 4.4-2.7 1.1 0 1.8 0.5 0.8 0.5 1.3 1.8 0.3 0.8 0.3 2.5v5.6q0 1.2 0.2 1.6 0.1 0.4 0.5 0.6 0.3 0.2 1.3 0.2v0.5h-6.5v-0.5h0.2q1 0 1.3-0.3 0.4-0.3 0.5-0.8 0.1-0.2 0.1-1.3v-5.3q0-1.8-0.5-2.6-0.4-0.8-1.5-0.8-1.7 0-3.4 1.8v6.9q-0.1 1.3 0.1 1.6 0.2 0.4 0.6 0.6 0.3 0.2 1.4 0.2v0.5h-6.5v-0.5h0.3q1 0 1.3-0.5 0.4-0.5 0.4-1.9v-4.8q0-2.4-0.1-2.9-0.1-0.5-0.4-0.7-0.2-0.2-0.6-0.2-0.3 0-0.9 0.3l-0.2-0.6 3.9-1.5h0.7z"/><path fill-rule="evenodd" class="c" d="m421 439.6q-1.2-0.6-1.9-1.6-0.6-1.1-0.6-2.3 0-2 1.5-3.3 1.5-1.4 3.8-1.4 1.8 0 3.2 0.9c0.4 0 3.4 0 3.5 0q0.1 0 0.2 0.1 0.1 0.2 0.1 0.5 0 0.3-0.1 0.5-0.1 0.1-0.2 0.1-0.1 0-0.7 0h-1.7q0.8 1.1 0.8 2.6 0 1.9-1.4 3.1-1.4 1.3-3.8 1.3-1 0-2-0.3-0.6 0.6-0.9 1-0.2 0.4-0.2 0.7 0 0.2 0.3 0.4 0.2 0.3 0.9 0.4 0.4 0 2 0 3 0.1 3.8 0.2 1.4 0.2 2.2 1 0.8 0.8 0.8 2 0 1.6-1.5 3-2.3 2-5.9 2-2.8 0-4.7-1.2-1.1-0.7-1.1-1.5 0-0.3 0.2-0.7 0.2-0.5 1-1.4 0.1-0.1 1.5-1.5-0.8-0.5-1.1-0.8-0.3-0.3-0.3-0.8 0-0.5 0.4-1.1 0.4-0.7 1.9-1.9zm2.5-7.9q-1.1 0-1.8 0.8-0.7 0.8-0.7 2.5 0 2.3 1 3.5 0.7 0.9 1.9 0.9 1.1 0 1.8-0.8 0.7-0.8 0.7-2.5 0-2.3-1-3.5-0.7-0.9-1.9-0.9zm-2.6 12.6q-0.7 0.7-1.1 1.3-0.3 0.6-0.3 1.2 0 0.6 0.8 1.2 1.5 0.8 4.2 0.8 2.6 0 3.8-0.9 1.2-0.9 1.2-1.9 0-0.7-0.7-1-0.8-0.3-3-0.4-3.2-0.1-4.9-0.3z"/><path class="c" d=""/><path class="c" d="m472.9 424.7l0.4 6.5h-0.4q-0.9-2.9-2.6-4.2-1.6-1.3-3.9-1.3-2 0-3.6 1-1.5 1-2.4 3.1-0.9 2.1-0.9 5.2 0 2.6 0.8 4.5 0.9 1.9 2.6 3 1.7 1 3.9 1 1.9 0 3.3-0.8 1.5-0.8 3.2-3.2l0.4 0.3q-1.4 2.5-3.4 3.7-1.9 1.2-4.6 1.2-4.9 0-7.5-3.5-2-2.6-2-6.2 0-2.9 1.3-5.2 1.3-2.5 3.6-3.8 2.3-1.3 5-1.3 2.1 0 4.2 1 0.6 0.3 0.8 0.3 0.4 0 0.7-0.2 0.4-0.4 0.6-1.1z"/><path fill-rule="evenodd" class="c" d="m486.2 436.2q-0.1 2.9 1.4 4.5 1.4 1.7 3.4 1.7 1.2 0 2.2-0.7 1-0.7 1.6-2.4l0.4 0.3q-0.2 1.9-1.7 3.5-1.5 1.6-3.6 1.6-2.4 0-4.1-1.8-1.7-1.9-1.7-4.9 0-3.3 1.7-5.2 1.8-1.8 4.4-1.8 2.2 0 3.6 1.4 1.4 1.4 1.4 3.8zm0-0.8h6.1q0-1.2-0.3-1.7-0.3-0.8-1-1.3-0.8-0.4-1.5-0.4-1.2 0-2.2 0.9-0.9 0.9-1.1 2.5z"/><path class="c" d="m509.1 433.7q2.3-2.7 4.4-2.7 1.1 0 1.8 0.5 0.8 0.5 1.3 1.8 0.3 0.8 0.3 2.5v5.6q0 1.2 0.2 1.6 0.2 0.4 0.5 0.6 0.4 0.2 1.3 0.2v0.5h-6.5v-0.5h0.3q0.9 0 1.3-0.3 0.3-0.3 0.5-0.8 0-0.2 0-1.3v-5.3q0-1.8-0.4-2.6-0.5-0.8-1.6-0.8-1.7 0-3.4 1.8v6.9q0 1.3 0.2 1.6 0.1 0.4 0.5 0.6 0.4 0.2 1.4 0.2v0.5h-6.5v-0.5h0.3q1 0 1.4-0.5 0.3-0.5 0.3-1.9v-4.8q0-2.4-0.1-2.9-0.1-0.5-0.3-0.7-0.3-0.2-0.6-0.2-0.4 0-1 0.3l-0.2-0.6 4-1.5h0.6z"/><path class="c" d="m532 427.1v4.3h3.1v0.9h-3.1v8.4q0 1.3 0.4 1.7 0.4 0.5 0.9 0.5 0.5 0 1-0.3 0.4-0.3 0.7-0.9h0.5q-0.5 1.4-1.4 2.1-0.9 0.7-1.9 0.7-0.7 0-1.3-0.4-0.6-0.3-0.9-1-0.3-0.7-0.3-2.1v-8.7h-2.1v-0.4q0.8-0.3 1.6-1.1 0.8-0.7 1.5-1.7 0.3-0.6 0.9-2z"/><path class="c" d="m548.5 431v2.9q1.6-2.9 3.4-2.9 0.8 0 1.3 0.5 0.5 0.4 0.5 1 0 0.6-0.4 1-0.3 0.3-0.9 0.3-0.5 0-1.1-0.4-0.6-0.5-0.9-0.5-0.3 0-0.6 0.3-0.6 0.5-1.3 1.9v6.2q0 1 0.3 1.6 0.2 0.4 0.6 0.6 0.5 0.3 1.4 0.3v0.5h-6.7v-0.5q1 0 1.5-0.3 0.3-0.3 0.5-0.7 0-0.3 0-1.4v-5q0-2.3-0.1-2.7-0.1-0.4-0.3-0.7-0.3-0.2-0.6-0.2-0.5 0-1 0.3l-0.2-0.6 4-1.5z"/><path fill-rule="evenodd" class="c" d="m564.9 436.2q0 2.9 1.4 4.5 1.5 1.7 3.4 1.7 1.3 0 2.3-0.7 0.9-0.7 1.6-2.4l0.4 0.3q-0.3 1.9-1.7 3.5-1.5 1.6-3.7 1.6-2.4 0-4-1.8-1.7-1.9-1.7-4.9 0-3.3 1.7-5.2 1.7-1.8 4.3-1.8 2.3 0 3.7 1.4 1.4 1.4 1.4 3.8zm0-0.8h6.1q-0.1-1.2-0.3-1.7-0.4-0.8-1.1-1.3-0.7-0.4-1.5-0.4-1.2 0-2.1 0.9-0.9 0.9-1.1 2.5z"/></svg>
